# xmcd
#
# Track frame offsets: 
#        150
#        25337
#        43072
#        65899
#        88226
#        101399
#        124292
#        144061
#        166051
#        187738
#        211426
#        235449
#        260029
#        284189
#        314407
#
# Disc length: 4472 seconds
#
# Revision: 3
# Processed by: cddbd v1.5.2PL0 Copyright (c) Steve Scherf et al.
# Submitted via: ExactAudioCopyFreeDBPlugin 1.0
#
DISCID=e411760f
DTITLE=Phil Collins - Golden Collection 2000
DYEAR=1999
DGENRE=Pop
TTITLE0=In The Air Tonight
TTITLE1=This Must Be love
TTITLE2=I Don't Care Anymore
TTITLE3=Do You Know, Do You Care ?
TTITLE4=You Can't Hurry Love
TTITLE5=Thru These Walls
TTITLE6=Sussudio
TTITLE7=One More Night
TTITLE8=Don't Lose My Number
TTITLE9=Inside Out
TTITLE10=That's First The Way It Is
TTITLE11=I Wish It Would Rain Down
TTITLE12=Another Day In Paradise
TTITLE13=Both Sides Of The Story
TTITLE14=Can't Turn Back The Years
EXTD=YEAR: 1999
EXTT0=
EXTT1=
EXTT2=
EXTT3=
EXTT4=
EXTT5=
EXTT6=
EXTT7=
EXTT8=
EXTT9=
EXTT10=
EXTT11=
EXTT12=
EXTT13=
EXTT14=
PLAYORDER=
